<?xml version="1.0" encoding="utf-8"?>
<!-- Generator: Adobe Illustrator 21.0.0, SVG Export Plug-In . SVG Version: 6.00 Build 0)  -->
<svg version="1.1" id="图层_1" xmlns="http://www.w3.org/2000/svg" xmlns:xlink="http://www.w3.org/1999/xlink" x="0px" y="0px"
	 viewBox="0 0 254.3 216" style="enable-background:new 0 0 254.3 216;" xml:space="preserve">
<style type="text/css">
	.st0{fill:#FF4A4A;}
</style>
<g>
	<path class="st0" d="M109.8,213.6c-60.7,0-110.1-47.9-110.1-106.8C-0.2,47.8,49.2-0.1,109.8-0.1c60.7,0,110.1,47.9,110.1,106.8
		C219.9,165.7,170.5,213.6,109.8,213.6z M109.8,53.3c-31.2,0-56.7,24-56.7,53.4c0,29.5,25.4,53.4,56.7,53.4s56.7-24,56.7-53.4
		S141.1,53.3,109.8,53.3z"/>
	<path class="st0" d="M254.3,183.2c0,9.8-8,17.8-17.8,17.8s-17.8-8-17.8-17.8s8-17.8,17.8-17.8C246.4,165.4,254.3,173.3,254.3,183.2
		z"/>
</g>
</svg>
